<svg t="1770799400998" class="icon" viewBox="0 0 1024 1024" version="1.1" xmlns="http://www.w3.org/2000/svg" p-id="6715"
     width="160" height="160">
    <path d="M512 1024a512 512 0 1 1 512-512 512 512 0 0 1-512 512z m0-938.666667a426.666667 426.666667 0 1 0 426.666667 426.666667A426.666667 426.666667 0 0 0 512 85.333333z m133.674667 625.792l-163.626667-163.626666a45.525333 45.525333 0 0 1-12.8-36.992V213.333333a42.666667 42.666667 0 0 1 85.333333 0v275.882667l156.458667 156.458667a46.293333 46.293333 0 1 1-65.365333 65.450666z"
          p-id="6716" fill="#dbdbdb"></path>
</svg>